<svg xmlns="http://www.w3.org/2000/svg" width="410" height="404" viewBox="0 0 410 404" fill="none">
  <defs>
    <linearGradient id="paint0_linear" x1="203.609" x2="173.62" y1="11.3302" y2="303.291" gradientUnits="userSpaceOnUse">
      <stop stop-color="#41D1FF" />
      <stop offset="1" stop-color="#BD34FE" />
    </linearGradient>
    <linearGradient id="paint1_linear" x1="209.55" x2="246.891" y1="-1.93591" y2="292.322" gradientUnits="userSpaceOnUse">
      <stop stop-color="#FFEA83" />
      <stop offset="0.0833333" stop-color="#FFDD35" />
      <stop offset="1" stop-color="#FFA800" />
    </linearGradient>
  </defs>
  <path
    d="M399.641 59.5246L215.643 388.545C211.844 395.338 202.084 395.378 198.228 388.618L10.5817 59.5563C6.38087 52.1896 12.6802 43.2665 21.0281 44.7586L205.223 77.6824C206.398 77.8924 207.601 77.8904 208.776 77.6763L389.119 44.8058C397.439 43.2894 403.768 52.1434 399.641 59.5246Z"
    fill="url(#paint0_linear)"
  />
  <path
    d="M292.965 1.5744L156.801 28.2552C154.563 28.6937 152.906 30.5903 152.771 32.8664L144.395 174.33C144.198 177.697 147.258 180.407 150.57 179.666L188.42 171.125C191.967 170.333 195.172 173.272 194.443 176.855L183.18 232.345C182.422 236.07 185.931 239.253 189.51 238.214L212.947 231.404C216.533 230.363 220.049 233.559 219.279 237.291L201.394 324.551C200.278 329.783 207.486 332.629 210.492 328.015L212.5 324.954L323.276 102.72C325.088 99.0904 322.108 95.0159 318.142 95.7795L279.888 103.198C276.266 103.888 273.311 100.733 274.344 97.1829L301.72 2.86689C302.771 -0.736393 299.567 -3.91173 295.931 -3.14899Z"
    fill="url(#paint1_linear)"
  />
</svg>
